<svg width="18" height="18" viewBox="0 0 18 18" fill="none" xmlns="http://www.w3.org/2000/svg">
<path d="M17 8.5L17 8.50257C17.003 9.66503 16.7315 10.8117 16.2074 11.8491L16.2055 11.8529C15.5829 13.0987 14.6259 14.1464 13.4415 14.8788C12.257 15.6112 10.8921 15.9995 9.49962 16L9.49735 16C8.335 16.0031 7.18841 15.7315 6.15087 15.2074C5.91288 15.0872 5.63672 15.067 5.38377 15.1513L1.58114 16.4189L2.84868 12.6162C2.933 12.3633 2.91281 12.0871 2.7926 11.8491C2.26854 10.8116 1.99697 9.665 2 8.5026L2 8.50038C2.00054 7.10785 2.38877 5.74293 3.12122 4.55855C3.85367 3.37417 4.90141 2.41709 6.14706 1.79453L6.14707 1.79454L6.15085 1.79263C7.18839 1.26857 8.335 0.996996 9.49739 1.00003H9.5H9.97157C11.8002 1.10746 13.5263 1.88226 14.822 3.178C16.1177 4.47374 16.8926 6.1998 17 8.02844L17 8.5Z" stroke="black" stroke-width="2" stroke-linecap="round" stroke-linejoin="round"/>
</svg>
