<svg width="18" height="18" viewBox="0 0 18 18" fill="none" xmlns="http://www.w3.org/2000/svg">
<path d="M18 8.5C18.0034 9.8199 17.6951 11.1219 17.1 12.3C16.3944 13.7118 15.3098 14.8992 13.9675 15.7293C12.6251 16.5594 11.0782 16.9994 9.5 17C8.1801 17.0035 6.87812 16.6951 5.7 16.1L0 18L1.9 12.3C1.30493 11.1219 0.99656 9.8199 1 8.5C1.00061 6.92179 1.44061 5.37488 2.27072 4.03258C3.10083 2.69028 4.28826 1.6056 5.7 0.900028C6.87812 0.304958 8.1801 -0.00341153 9.5 2.84677e-05H10C12.0843 0.115018 14.053 0.994788 15.5291 2.47089C17.0052 3.94699 17.885 5.91568 18 8V8.5Z" fill="#100E34"/>
<path d="M17 8.5L17 8.50257C17.003 9.66503 16.7315 10.8117 16.2074 11.8491L16.2055 11.8529C15.5829 13.0987 14.6259 14.1464 13.4415 14.8788C12.257 15.6112 10.8921 15.9995 9.49962 16L9.49735 16C8.335 16.0031 7.18841 15.7315 6.15087 15.2074C5.91288 15.0872 5.63672 15.067 5.38377 15.1513L1.58114 16.4189L2.84868 12.6162C2.933 12.3633 2.91281 12.0871 2.7926 11.8491C2.26854 10.8116 1.99697 9.665 2 8.5026L2 8.50038C2.00054 7.10785 2.38877 5.74293 3.12122 4.55855C3.85367 3.37417 4.90141 2.41709 6.14706 1.79453L6.14707 1.79454L6.15085 1.79263C7.18839 1.26857 8.335 0.996996 9.49739 1.00003H9.5H9.97157C11.8002 1.10746 13.5263 1.88226 14.822 3.178C16.1177 4.47374 16.8926 6.1998 17 8.02844L17 8.5Z" stroke="#100E34" stroke-opacity="0.5" stroke-width="2" stroke-linecap="round" stroke-linejoin="round"/>
</svg>
