<svg width="24" height="24" viewBox="0 0 24 24" fill="none" xmlns="http://www.w3.org/2000/svg">
<path d="M23.6546 16.8323C23.6326 16.6917 23.5988 16.5532 23.5537 16.4182C23.1223 15.2177 21.8922 14.4993 20.6347 14.7136C20.2187 14.7791 19.8284 14.495 19.7628 14.079L19.13 10.0302C18.6106 6.60444 16.1358 3.79906 12.8017 2.85641C12.4985 1.00054 10.7482 -0.258162 8.8923 0.0450789C7.06095 0.344317 5.8064 2.05482 6.07126 3.89148C3.19738 5.71023 1.68038 9.06384 2.212 12.4231L2.89009 16.7324C2.95219 17.1476 2.66966 17.5358 2.25558 17.6044C0.992878 17.7866 0.0425235 18.8478 0.000139499 20.1229C-0.0144725 21.5377 1.12068 22.6966 2.53555 22.7112C2.54441 22.7113 2.55332 22.7114 2.56218 22.7114C2.69573 22.7113 2.82904 22.701 2.96099 22.6806L5.58963 22.2673C6.50405 23.8997 8.56864 24.4818 10.201 23.5674C11.0633 23.0844 11.6716 22.249 11.8666 21.2801L21.5212 19.7608C22.919 19.5413 23.8742 18.2301 23.6546 16.8323ZM9.18929 1.81714C9.27831 1.80327 9.36823 1.79612 9.4583 1.79577C10.0308 1.79882 10.5641 2.0871 10.8802 2.56438H10.8392C10.5207 2.55477 10.2019 2.56393 9.88442 2.5917C9.55012 2.62363 9.21791 2.67497 8.8895 2.74542C8.81859 2.75993 8.74859 2.78045 8.67853 2.79751C8.40952 2.86071 8.14561 2.93502 7.88685 3.02299C7.86123 3.0307 7.83476 3.03495 7.80914 3.04436C7.98933 2.4004 8.52871 1.92077 9.18929 1.81714ZM8.54022 22.2921C8.17828 22.2925 7.8258 22.1763 7.53507 21.9607L9.92632 21.5858C9.60452 22.0302 9.08886 22.2929 8.54022 22.2921Z" fill="#100E34"/>
<path d="M23.1606 16.9096L23.1607 16.9099C23.3374 18.0349 22.5686 19.0902 21.4437 19.2668L21.4435 19.2668L11.7889 20.7861L11.4451 20.8402L11.3764 21.1814C11.2102 22.0073 10.6917 22.7194 9.95667 23.1311L10.201 23.5674L9.95666 23.1311C8.56522 23.9106 6.80532 23.4144 6.02585 22.0229L5.85577 21.7193L5.51197 21.7733L2.88459 22.1864C2.88429 22.1865 2.88398 22.1865 2.88367 22.1866C2.77717 22.203 2.66958 22.2113 2.5618 22.2114L2.54119 22.2112L2.54071 22.2112C1.40388 22.1995 0.491413 21.2698 0.500062 20.1337C0.537047 19.1033 1.30597 18.2466 2.32699 18.0992L2.327 18.0993L2.3373 18.0976C3.02079 17.9844 3.48708 17.3437 3.3846 16.6584L3.38401 16.6546L2.70592 12.3453L2.70585 12.3449C2.20543 9.18281 3.63341 6.026 6.33864 4.31398L6.61238 4.14075L6.56614 3.82012C6.34017 2.25316 7.4105 0.793832 8.97292 0.538535C10.5563 0.279824 12.0496 1.35369 12.3083 2.93703L12.3596 3.251L12.6657 3.33755C15.811 4.22683 18.1457 6.87336 18.6357 10.1051L18.636 10.1074L19.2688 14.1562L19.2689 14.1568C19.3775 14.8455 20.0237 15.3159 20.7125 15.2075L20.7125 15.2075L20.7187 15.2065C21.7354 15.0332 22.7301 15.6126 23.0813 16.5819C23.1167 16.689 23.1433 16.7985 23.1606 16.9096ZM9.11231 1.3231L9.1118 1.32318C8.25781 1.45715 7.56056 2.07719 7.32763 2.90963L7.06434 3.85058L7.96999 3.51794L7.9759 3.5165L7.98937 3.51318C7.99963 3.5106 8.01427 3.5068 8.03093 3.50178L8.03941 3.49923L8.04778 3.49638C8.28969 3.41414 8.53793 3.34416 8.79288 3.28426L8.79289 3.28427L8.79682 3.28332C8.84198 3.27232 8.87257 3.26421 8.89788 3.2575C8.93067 3.2488 8.95457 3.24247 8.98973 3.23527L8.98974 3.23529L8.99437 3.2343C9.30323 3.16804 9.61563 3.11973 9.92997 3.08963C10.2274 3.06369 10.5259 3.05516 10.8241 3.06415L10.8317 3.06438H10.8392H10.8802H11.8111L11.2971 2.28829C10.8889 1.67196 10.2002 1.29972 9.46096 1.29578V1.29576L9.45636 1.29577C9.34112 1.29622 9.22611 1.30537 9.11231 1.3231ZM7.23724 22.3623C7.61411 22.6418 8.07098 22.7924 8.54013 22.7921C9.24907 22.7929 9.9154 22.4533 10.3313 21.879L11.0361 20.9057L9.84887 21.0918L7.45762 21.4667L6.27879 21.6515L7.23724 22.3623Z" stroke="#100E34" stroke-opacity="0.5"/>
</svg>
