<svg width="24" height="24" viewBox="0 0 24 24" fill="none" xmlns="http://www.w3.org/2000/svg">
<path d="M16.4932 15.1534L16.2099 15.5033L16.5282 15.8216L23.3533 22.6465C23.549 22.8422 23.549 23.1576 23.3532 23.3533C23.2556 23.451 23.1283 23.4999 22.9998 23.4999C22.8713 23.4999 22.744 23.451 22.6464 23.3533L15.8214 16.5284L15.503 16.2101L15.1532 16.4934C13.6053 17.7466 11.6403 18.4999 9.49992 18.4999C4.53811 18.4999 0.5 14.4619 0.5 9.5C0.5 4.53819 4.53807 0.500122 9.49988 0.500122C14.4617 0.500122 18.4998 4.53824 18.4998 9.50005C18.4998 11.6403 17.7464 13.6053 16.4932 15.1534ZM1.5 9.5C1.5 13.9121 5.08781 17.4999 9.49992 17.4999C13.912 17.4999 17.4998 13.9121 17.4998 9.5C17.4998 5.08789 13.912 1.50007 9.49992 1.50007C5.08781 1.50007 1.5 5.08789 1.5 9.5Z" stroke="black"/>
</svg>
